<svg width="10" height="12" viewBox="0 0 10 12" fill="none" xmlns="http://www.w3.org/2000/svg">
<path d="M0.494 12V0.227999H4.256C5.072 0.227999 5.792 0.317999 6.416 0.497999C7.052 0.677999 7.55 0.984 7.91 1.416C8.282 1.836 8.468 2.406 8.468 3.126C8.468 3.678 8.324 4.2 8.036 4.692C7.748 5.172 7.346 5.502 6.83 5.682V5.754C7.478 5.898 8.012 6.204 8.432 6.672C8.864 7.128 9.08 7.752 9.08 8.544C9.08 9.324 8.882 9.972 8.486 10.488C8.102 11.004 7.568 11.388 6.884 11.64C6.2 11.88 5.426 12 4.562 12H0.494ZM2.582 5.088H4.076C4.892 5.088 5.486 4.938 5.858 4.638C6.23 4.338 6.416 3.936 6.416 3.432C6.416 2.856 6.224 2.448 5.84 2.208C5.456 1.968 4.88 1.848 4.112 1.848H2.582V5.088ZM2.582 10.38H4.346C5.21 10.38 5.876 10.224 6.344 9.912C6.812 9.588 7.046 9.096 7.046 8.436C7.046 7.812 6.818 7.362 6.362 7.086C5.906 6.798 5.234 6.654 4.346 6.654H2.582V10.38Z" fill="white"/>
</svg>
